<?xml version='1.0' encoding='UTF-8'?>
<svg width="111mm" height="111mm" version="1.1" viewBox="0 0 111 111" xmlns="http://www.w3.org/2000/svg"><path d="M12,12H15V15H12zM15,12H18V15H15zM18,12H21V15H18zM21,12H24V15H21zM24,12H27V15H24zM27,12H30V15H27zM30,12H33V15H30zM36,12H39V15H36zM42,12H45V15H42zM45,12H48V15H45zM48,12H51V15H48zM54,12H57V15H54zM66,12H69V15H66zM78,12H81V15H78zM81,12H84V15H81zM84,12H87V15H84zM87,12H90V15H87zM90,12H93V15H90zM93,12H96V15H93zM96,12H99V15H96zM12,15H15V18H12zM30,15H33V18H30zM39,15H42V18H39zM45,15H48V18H45zM51,15H54V18H51zM54,15H57V18H54zM72,15H75V18H72zM78,15H81V18H78zM96,15H99V18H96zM12,18H15V21H12zM18,18H21V21H18zM21,18H24V21H21zM24,18H27V21H24zM30,18H33V21H30zM36,18H39V21H36zM39,18H42V21H39zM48,18H51V21H48zM51,18H54V21H51zM63,18H66V21H63zM78,18H81V21H78zM84,18H87V21H84zM87,18H90V21H87zM90,18H93V21H90zM96,18H99V21H96zM12,21H15V24H12zM18,21H21V24H18zM21,21H24V24H21zM24,21H27V24H24zM30,21H33V24H30zM39,21H42V24H39zM45,21H48V24H45zM51,21H54V24H51zM54,21H57V24H54zM63,21H66V24H63zM66,21H69V24H66zM78,21H81V24H78zM84,21H87V24H84zM87,21H90V24H87zM90,21H93V24H90zM96,21H99V24H96zM12,24H15V27H12zM18,24H21V27H18zM21,24H24V27H21zM24,24H27V27H24zM30,24H33V27H30zM42,24H45V27H42zM45,24H48V27H45zM48,24H51V27H48zM54,24H57V27H54zM63,24H66V27H63zM78,24H81V27H78zM84,24H87V27H84zM87,24H90V27H87zM90,24H93V27H90zM96,24H99V27H96zM12,27H15V30H12zM30,27H33V30H30zM36,27H39V30H36zM42,27H45V30H42zM45,27H48V30H45zM54,27H57V30H54zM66,27H69V30H66zM78,27H81V30H78zM96,27H99V30H96zM12,30H15V33H12zM15,30H18V33H15zM18,30H21V33H18zM21,30H24V33H21zM24,30H27V33H24zM27,30H30V33H27zM30,30H33V33H30zM36,30H39V33H36zM42,30H45V33H42zM48,30H51V33H48zM54,30H57V33H54zM60,30H63V33H60zM66,30H69V33H66zM72,30H75V33H72zM78,30H81V33H78zM81,30H84V33H81zM84,30H87V33H84zM87,30H90V33H87zM90,30H93V33H90zM93,30H96V33H93zM96,30H99V33H96zM39,33H42V36H39zM45,33H48V36H45zM60,33H63V36H60zM69,33H72V36H69zM72,33H75V36H72zM12,36H15V39H12zM18,36H21V39H18zM30,36H33V39H30zM33,36H36V39H33zM39,36H42V39H39zM42,36H45V39H42zM45,36H48V39H45zM57,36H60V39H57zM72,36H75V39H72zM81,36H84V39H81zM90,36H93V39H90zM96,36H99V39H96zM15,39H18V42H15zM24,39H27V42H24zM33,39H36V42H33zM39,39H42V42H39zM42,39H45V42H42zM51,39H54V42H51zM57,39H60V42H57zM60,39H63V42H60zM63,39H66V42H63zM69,39H72V42H69zM78,39H81V42H78zM81,39H84V42H81zM93,39H96V42H93zM96,39H99V42H96zM12,42H15V45H12zM18,42H21V45H18zM24,42H27V45H24zM30,42H33V45H30zM39,42H42V45H39zM42,42H45V45H42zM45,42H48V45H45zM51,42H54V45H51zM54,42H57V45H54zM57,42H60V45H57zM60,42H63V45H60zM63,42H66V45H63zM66,42H69V45H66zM69,42H72V45H69zM75,42H78V45H75zM78,42H81V45H78zM81,42H84V45H81zM87,42H90V45H87zM90,42H93V45H90zM96,42H99V45H96zM12,45H15V48H12zM18,45H21V48H18zM24,45H27V48H24zM27,45H30V48H27zM33,45H36V48H33zM36,45H39V48H36zM39,45H42V48H39zM42,45H45V48H42zM54,45H57V48H54zM57,45H60V48H57zM75,45H78V48H75zM84,45H87V48H84zM87,45H90V48H87zM12,48H15V51H12zM15,48H18V51H15zM27,48H30V51H27zM30,48H33V51H30zM45,48H48V51H45zM48,48H51V51H48zM57,48H60V51H57zM69,48H72V51H69zM78,48H81V51H78zM96,48H99V51H96zM12,51H15V54H12zM21,51H24V54H21zM39,51H42V54H39zM45,51H48V54H45zM51,51H54V54H51zM57,51H60V54H57zM60,51H63V54H60zM66,51H69V54H66zM69,51H72V54H69zM75,51H78V54H75zM78,51H81V54H78zM81,51H84V54H81zM93,51H96V54H93zM96,51H99V54H96zM15,54H18V57H15zM21,54H24V57H21zM24,54H27V57H24zM30,54H33V57H30zM33,54H36V57H33zM45,54H48V57H45zM48,54H51V57H48zM57,54H60V57H57zM63,54H66V57H63zM69,54H72V57H69zM72,54H75V57H72zM75,54H78V57H75zM84,54H87V57H84zM96,54H99V57H96zM15,57H18V60H15zM18,57H21V60H18zM33,57H36V60H33zM36,57H39V60H36zM48,57H51V60H48zM54,57H57V60H54zM57,57H60V60H57zM60,57H63V60H60zM66,57H69V60H66zM69,57H72V60H69zM78,57H81V60H78zM84,57H87V60H84zM15,60H18V63H15zM18,60H21V63H18zM21,60H24V63H21zM30,60H33V63H30zM42,60H45V63H42zM48,60H51V63H48zM54,60H57V63H54zM60,60H63V63H60zM69,60H72V63H69zM78,60H81V63H78zM96,60H99V63H96zM15,63H18V66H15zM24,63H27V66H24zM45,63H48V66H45zM48,63H51V66H48zM51,63H54V66H51zM57,63H60V66H57zM60,63H63V66H60zM69,63H72V66H69zM78,63H81V66H78zM81,63H84V66H81zM90,63H93V66H90zM93,63H96V66H93zM96,63H99V66H96zM12,66H15V69H12zM15,66H18V69H15zM18,66H21V69H18zM24,66H27V69H24zM27,66H30V69H27zM30,66H33V69H30zM42,66H45V69H42zM45,66H48V69H45zM48,66H51V69H48zM57,66H60V69H57zM60,66H63V69H60zM66,66H69V69H66zM69,66H72V69H69zM75,66H78V69H75zM78,66H81V69H78zM84,66H87V69H84zM87,66H90V69H87zM96,66H99V69H96zM18,69H21V72H18zM24,69H27V72H24zM27,69H30V72H27zM39,69H42V72H39zM42,69H45V72H42zM45,69H48V72H45zM48,69H51V72H48zM54,69H57V72H54zM75,69H78V72H75zM81,69H84V72H81zM12,72H15V75H12zM15,72H18V75H15zM18,72H21V75H18zM21,72H24V75H21zM27,72H30V75H27zM30,72H33V75H30zM36,72H39V75H36zM39,72H42V75H39zM42,72H45V75H42zM51,72H54V75H51zM54,72H57V75H54zM57,72H60V75H57zM66,72H69V75H66zM69,72H72V75H69zM72,72H75V75H72zM75,72H78V75H75zM78,72H81V75H78zM81,72H84V75H81zM84,72H87V75H84zM87,72H90V75H87zM93,72H96V75H93zM36,75H39V78H36zM42,75H45V78H42zM51,75H54V78H51zM57,75H60V78H57zM60,75H63V78H60zM63,75H66V78H63zM69,75H72V78H69zM72,75H75V78H72zM84,75H87V78H84zM87,75H90V78H87zM90,75H93V78H90zM96,75H99V78H96zM12,78H15V81H12zM15,78H18V81H15zM18,78H21V81H18zM21,78H24V81H21zM24,78H27V81H24zM27,78H30V81H27zM30,78H33V81H30zM36,78H39V81H36zM39,78H42V81H39zM45,78H48V81H45zM57,78H60V81H57zM72,78H75V81H72zM78,78H81V81H78zM84,78H87V81H84zM96,78H99V81H96zM12,81H15V84H12zM30,81H33V84H30zM39,81H42V84H39zM42,81H45V84H42zM48,81H51V84H48zM51,81H54V84H51zM57,81H60V84H57zM60,81H63V84H60zM72,81H75V84H72zM84,81H87V84H84zM93,81H96V84H93zM12,84H15V87H12zM18,84H21V87H18zM21,84H24V87H21zM24,84H27V87H24zM30,84H33V87H30zM42,84H45V87H42zM45,84H48V87H45zM51,84H54V87H51zM60,84H63V87H60zM69,84H72V87H69zM72,84H75V87H72zM75,84H78V87H75zM78,84H81V87H78zM81,84H84V87H81zM84,84H87V87H84zM87,84H90V87H87zM93,84H96V87H93zM12,87H15V90H12zM18,87H21V90H18zM21,87H24V90H21zM24,87H27V90H24zM30,87H33V90H30zM39,87H42V90H39zM48,87H51V90H48zM57,87H60V90H57zM63,87H66V90H63zM81,87H84V90H81zM84,87H87V90H84zM87,87H90V90H87zM90,87H93V90H90zM96,87H99V90H96zM12,90H15V93H12zM18,90H21V93H18zM21,90H24V93H21zM24,90H27V93H24zM30,90H33V93H30zM36,90H39V93H36zM39,90H42V93H39zM48,90H51V93H48zM51,90H54V93H51zM54,90H57V93H54zM57,90H60V93H57zM63,90H66V93H63zM66,90H69V93H66zM69,90H72V93H69zM84,90H87V93H84zM93,90H96V93H93zM96,90H99V93H96zM12,93H15V96H12zM30,93H33V96H30zM42,93H45V96H42zM45,93H48V96H45zM57,93H60V96H57zM60,93H63V96H60zM66,93H69V96H66zM69,93H72V96H69zM72,93H75V96H72zM81,93H84V96H81zM84,93H87V96H84zM87,93H90V96H87zM12,96H15V99H12zM15,96H18V99H15zM18,96H21V99H18zM21,96H24V99H21zM24,96H27V99H24zM27,96H30V99H27zM30,96H33V99H30zM36,96H39V99H36zM42,96H45V99H42zM45,96H48V99H45zM51,96H54V99H51zM60,96H63V99H60zM69,96H72V99H69zM72,96H75V99H72zM78,96H81V99H78zM84,96H87V99H84zM87,96H90V99H87zM96,96H99V99H96z" id="qr-path" fill="#000000" fill-opacity="1" fill-rule="nonzero" stroke="none" /></svg>